<?xml version="1.0" encoding="utf-8"?>
<!-- Generator: Adobe Illustrator 16.1.0, SVG Export Plug-In . SVG Version: 6.00 Build 0)  -->
<!DOCTYPE svg PUBLIC "-//W3C//DTD SVG 1.1//EN" "http://www.w3.org/Graphics/SVG/1.1/DTD/svg11.dtd">
<svg version="1.1" xmlns="http://www.w3.org/2000/svg" xmlns:xlink="http://www.w3.org/1999/xlink" x="0px" y="0px" width="50px"
	 height="50px" viewBox="0 0 50 50" enable-background="new 0 0 50 50" xml:space="preserve">
<g id="Layer_1" display="none">
	<path display="inline" fill="#B5B5B6" d="M13.365,0c0-7.381-5.984-13.365-13.365-13.365S-13.365-7.381-13.365,0
		c0,7.381,5.984,13.365,13.365,13.365S13.365,7.381,13.365,0z M-1.195,2.259h-5.469v-4.518h5.469v-4.917L7.406,0l-8.602,7.176V2.259
		z"/>
	<path display="inline" fill="#B5B5B6" d="M63.365,0c0-7.381-5.984-13.365-13.365-13.365S36.635-7.381,36.635,0
		c0,7.381,5.984,13.365,13.365,13.365S63.365,7.381,63.365,0z M48.805,2.259h-5.469v-4.518h5.469v-4.917L57.406,0l-8.602,7.176
		V2.259z"/>
	<path display="inline" fill="#B5B5B6" d="M63.365,50c0-7.381-5.984-13.365-13.365-13.365S36.635,42.619,36.635,50
		S42.619,63.365,50,63.365S63.365,57.381,63.365,50z M48.805,52.259h-5.469v-4.518h5.469v-4.917L57.406,50l-8.602,7.176V52.259z"/>
	<path display="inline" fill="#B5B5B6" d="M13.365,50c0-7.381-5.984-13.365-13.365-13.365S-13.365,42.619-13.365,50
		S-7.381,63.365,0,63.365S13.365,57.381,13.365,50z M-1.195,52.259h-5.469v-4.518h5.469v-4.917L7.406,50l-8.602,7.176V52.259z"/>
	<path display="inline" fill="#8E8E8E" d="M36.639,19.431c0-7.846-6.361-14.208-14.207-14.208c-7.846,0-14.207,6.362-14.207,14.208
		c0,7.846,6.361,14.208,14.207,14.208C30.277,33.639,36.639,27.277,36.639,19.431z M21.161,21.832h-5.813V17.03h5.813v-5.227
		l9.144,7.628l-9.144,7.627V21.832z"/>
	<path display="inline" fill="#3F403F" d="M34.639,44.734c0-4.013-3.252-7.267-7.265-7.267s-7.266,3.254-7.266,7.267
		c0,4.012,3.253,7.266,7.266,7.266S34.639,48.746,34.639,44.734z M26.724,45.962h-2.973v-2.456h2.973v-2.673l4.677,3.901l-4.677,3.9
		V45.962z"/>
	<path display="inline" fill="#3F403F" d="M5.639,23.905c0-4.013-3.252-7.267-7.265-7.267s-7.266,3.254-7.266,7.267
		c0,4.012,3.253,7.266,7.266,7.266S5.639,27.917,5.639,23.905z M-2.276,25.133h-2.973v-2.456h2.973v-2.673L2.4,23.905l-4.677,3.9
		V25.133z"/>
	<path display="inline" fill="#3F403F" d="M55.639,23.905c0-4.013-3.252-7.267-7.265-7.267s-7.267,3.254-7.267,7.267
		c0,4.012,3.254,7.266,7.267,7.266S55.639,27.917,55.639,23.905z M47.724,25.133h-2.973v-2.456h2.973v-2.673l4.677,3.901l-4.677,3.9
		V25.133z"/>
	<path display="inline" fill="#3F403F" d="M34.639-5.266c0-4.013-3.252-7.267-7.265-7.267s-7.266,3.254-7.266,7.267
		C20.108-1.254,23.361,2,27.374,2S34.639-1.254,34.639-5.266z M26.724-4.038h-2.973v-2.456h2.973v-2.673L31.4-5.266l-4.677,3.9
		V-4.038z"/>
</g>
<g id="Layer_2">
	<rect x="-16.625" y="-14.375" fill="#FFFFFF" width="89" height="79.375"/>
	<path opacity="0.07" fill="#B5B5B6" d="M13.365,0c0-7.381-5.984-13.365-13.365-13.365S-13.365-7.381-13.365,0
		c0,7.381,5.984,13.365,13.365,13.365S13.365,7.381,13.365,0z M-1.195,2.259h-5.469v-4.518h5.469v-4.917L7.406,0l-8.602,7.176V2.259
		z"/>
	<path opacity="0.07" fill="#B5B5B6" d="M63.365,0c0-7.381-5.984-13.365-13.365-13.365S36.635-7.381,36.635,0
		c0,7.381,5.984,13.365,13.365,13.365S63.365,7.381,63.365,0z M48.805,2.259h-5.469v-4.518h5.469v-4.917L57.406,0l-8.602,7.176
		V2.259z"/>
	<path opacity="0.07" fill="#B5B5B6" d="M63.365,50c0-7.381-5.984-13.365-13.365-13.365S36.635,42.619,36.635,50
		S42.619,63.365,50,63.365S63.365,57.381,63.365,50z M48.805,52.259h-5.469v-4.518h5.469v-4.917L57.406,50l-8.602,7.176V52.259z"/>
	<path opacity="0.07" fill="#B5B5B6" d="M13.365,50c0-7.381-5.984-13.365-13.365-13.365S-13.365,42.619-13.365,50
		S-7.381,63.365,0,63.365S13.365,57.381,13.365,50z M-1.195,52.259h-5.469v-4.518h5.469v-4.917L7.406,50l-8.602,7.176V52.259z"/>
	<path opacity="0.07" fill="#6D6D6D" d="M38.938,20.938c0-6.627-5.373-12-12-12s-12,5.373-12,12c0,6.627,5.373,12,12,12
		S38.938,27.564,38.938,20.938z M25.864,22.966h-4.91v-4.057h4.91v-4.415l7.724,6.443l-7.724,6.443V22.966z"/>
</g>
</svg>
